{
	"patcher" : 	{
		"fileversion" : 1,
		"appversion" : 		{
			"major" : 8,
			"minor" : 1,
			"revision" : 4,
			"architecture" : "x64",
			"modernui" : 1
		}
,
		"classnamespace" : "dsp.gen",
		"rect" : [ 0.0, 0.0, 600.0, 450.0 ],
		"bglocked" : 0,
		"openinpresentation" : 0,
		"default_fontsize" : 12.0,
		"default_fontface" : 0,
		"default_fontname" : "Arial",
		"gridonopen" : 1,
		"gridsize" : [ 15.0, 15.0 ],
		"gridsnaponopen" : 1,
		"objectsnaponopen" : 1,
		"statusbarvisible" : 2,
		"toolbarvisible" : 1,
		"lefttoolbarpinned" : 0,
		"toptoolbarpinned" : 0,
		"righttoolbarpinned" : 0,
		"bottomtoolbarpinned" : 0,
		"toolbars_unpinned_last_save" : 0,
		"tallnewobj" : 0,
		"boxanimatetime" : 200,
		"enablehscroll" : 1,
		"enablevscroll" : 1,
		"devicewidth" : 0.0,
		"description" : "",
		"digest" : "",
		"tags" : "",
		"style" : "",
		"subpatcher_template" : "",
		"assistshowspatchername" : 0,
		"boxes" : [ 			{
				"box" : 				{
					"id" : "obj-18",
					"maxclass" : "comment",
					"numinlets" : 1,
					"numoutlets" : 0,
					"patching_rect" : [ 695.0, 322.0, 236.0, 20.0 ],
					"text" : "square wave: Peter McCulloch"
				}

			}
, 			{
				"box" : 				{
					"id" : "obj-29",
					"maxclass" : "newobj",
					"numinlets" : 1,
					"numoutlets" : 0,
					"patching_rect" : [ 295.0, 237.0, 128.0, 22.0 ],
					"text" : "out 2 @comment sync"
				}

			}
, 			{
				"box" : 				{
					"id" : "obj-27",
					"maxclass" : "newobj",
					"numinlets" : 2,
					"numoutlets" : 1,
					"outlettype" : [ "" ],
					"patching_rect" : [ 295.0, 190.5, 29.5, 22.0 ],
					"text" : "<"
				}

			}
, 			{
				"box" : 				{
					"id" : "obj-19",
					"maxclass" : "newobj",
					"numinlets" : 1,
					"numoutlets" : 1,
					"outlettype" : [ "" ],
					"patching_rect" : [ 295.0, 213.0, 35.0, 22.0 ],
					"text" : "? 1 0"
				}

			}
, 			{
				"box" : 				{
					"id" : "obj-30",
					"maxclass" : "comment",
					"numinlets" : 1,
					"numoutlets" : 0,
					"patching_rect" : [ 25.0, 939.0, 150.0, 20.0 ],
					"text" : "waveform select"
				}

			}
, 			{
				"box" : 				{
					"id" : "obj-28",
					"maxclass" : "comment",
					"numinlets" : 1,
					"numoutlets" : 0,
					"patching_rect" : [ 636.0, 171.0, 150.0, 20.0 ],
					"text" : "pulse width"
				}

			}
, 			{
				"box" : 				{
					"id" : "obj-17",
					"maxclass" : "newobj",
					"numinlets" : 2,
					"numoutlets" : 1,
					"outlettype" : [ "" ],
					"patching_rect" : [ 250.75, 120.0, 29.5, 22.0 ],
					"text" : "*"
				}

			}
, 			{
				"box" : 				{
					"id" : "obj-16",
					"maxclass" : "newobj",
					"numinlets" : 0,
					"numoutlets" : 1,
					"outlettype" : [ "" ],
					"patching_rect" : [ 261.25, 96.0, 238.0, 22.0 ],
					"text" : "in 6 @comment index @default 0. @min 0."
				}

			}
, 			{
				"box" : 				{
					"id" : "obj-13",
					"maxclass" : "newobj",
					"numinlets" : 0,
					"numoutlets" : 1,
					"outlettype" : [ "" ],
					"patching_rect" : [ 209.5, 58.0, 184.0, 22.0 ],
					"text" : "in 5 @comment ratio @default 1."
				}

			}
, 			{
				"box" : 				{
					"id" : "obj-8",
					"maxclass" : "newobj",
					"numinlets" : 2,
					"numoutlets" : 1,
					"outlettype" : [ "" ],
					"patching_rect" : [ 199.25, 88.0, 29.5, 22.0 ],
					"text" : "*"
				}

			}
, 			{
				"box" : 				{
					"id" : "obj-25",
					"maxclass" : "newobj",
					"numinlets" : 2,
					"numoutlets" : 1,
					"outlettype" : [ "" ],
					"patching_rect" : [ 199.25, 144.0, 29.5, 22.0 ],
					"text" : "*"
				}

			}
, 			{
				"box" : 				{
					"id" : "obj-24",
					"maxclass" : "newobj",
					"numinlets" : 1,
					"numoutlets" : 2,
					"outlettype" : [ "", "" ],
					"patching_rect" : [ 199.25, 120.0, 36.0, 22.0 ],
					"text" : "cycle"
				}

			}
, 			{
				"box" : 				{
					"id" : "obj-12",
					"maxclass" : "newobj",
					"numinlets" : 0,
					"numoutlets" : 1,
					"outlettype" : [ "" ],
					"patching_rect" : [ 647.0, 201.0, 354.0, 22.0 ],
					"text" : "in 3 @comment pulse width @min 0.01 @max 0.99 @default 0.5"
				}

			}
, 			{
				"box" : 				{
					"code" : "// phase\r\np = in1;\r\n// phase increment\r\nT0 = in2;\r\nT2 = 2*T0;\r\nT3 = 3*T0;\r\n// samples per period\r\nP0 = 1/T0;\r\n\r\n\r\n// \"pulse\" width\r\nw = in3;\r\nA = 2/w;\r\nB = 2/(w-1);\r\nC = 0.5*A*B;\r\nDC = 1.5*T0;\r\nP1 = C*P0;\r\nP2 = P1*P0;\r\nP3 = P2*P0/12;\r\n\r\nif (p < w)\r\n{\r\n\tif (p < T0)\r\n\t{\r\n\t\tout1 = B*p - B*DC - 1 - P3*p*p*p*p;\r\n\t}\r\n\telse if (p < T2)\r\n\t{\r\n\t\tout1 = B*p - B*DC - 1 + 2*P3*p*p*p*p - P2*p*p*p + 1.5*P1*p*p - C*p + 0.25*C*T0;\r\n\t}\r\n\telse if (p < T3)\r\n\t{\r\n\t\tout1 = B*p - B*DC - 1 - P3*p*p*p*p + P2*p*p*p - 4.5*P1*p*p + 7*C*p - 3.75*C*T0;\r\n\t}\r\n\telse\r\n\t{\r\n\t\tout1 = A*p - A*DC - 1;\r\n\t}\r\n}\r\nelse\r\n{\r\n\tpw = p - w;\r\n\t\r\n\tif (pw < T0)\r\n\t{\r\n\t\tout1 = A*pw - A*DC + 1 + P3*pw*pw*pw*pw; \r\n\t}\r\n\telse if (pw < T2)\r\n\t{\r\n\t\tout1 = A*pw - A*DC + 1 - 2*P3*pw*pw*pw*pw + P2*pw*pw*pw - 1.5*P1*pw*pw + C*pw - 0.25*C*T0;\r\n\t}\r\n\telse if (pw < T3)\r\n\t{\r\n\t\tout1 = A*pw - A*DC + 1 + P3*pw*pw*pw*pw - P2*pw*pw*pw + 4.5*P1*pw*pw - 7*C*pw + 3.75*C*T0;\r\n\t}\r\n\telse\r\n\t{\r\n\t\tout1 = B*pw - B*DC + 1;\r\n\t}\n}\r\n\r\n\n\r\n",
					"fontface" : 0,
					"fontname" : "<Monospaced>",
					"fontsize" : 12.0,
					"id" : "obj-11",
					"maxclass" : "codebox",
					"numinlets" : 3,
					"numoutlets" : 1,
					"outlettype" : [ "" ],
					"patching_rect" : [ 319.0, 574.0, 785.0, 478.0 ]
				}

			}
, 			{
				"box" : 				{
					"id" : "obj-10",
					"maxclass" : "newobj",
					"numinlets" : 1,
					"numoutlets" : 1,
					"outlettype" : [ "" ],
					"patching_rect" : [ 31.0, 1014.0, 26.0, 22.0 ],
					"text" : "+ 1"
				}

			}
, 			{
				"box" : 				{
					"id" : "obj-7",
					"maxclass" : "newobj",
					"numinlets" : 0,
					"numoutlets" : 1,
					"outlettype" : [ "" ],
					"patching_rect" : [ 31.0, 972.0, 266.0, 22.0 ],
					"text" : "in 4 @comment waveform min 0 max 1 default 0"
				}

			}
, 			{
				"box" : 				{
					"id" : "obj-5",
					"maxclass" : "newobj",
					"numinlets" : 3,
					"numoutlets" : 1,
					"outlettype" : [ "" ],
					"patching_rect" : [ 31.0, 1076.0, 61.0, 22.0 ],
					"text" : "selector 2"
				}

			}
, 			{
				"box" : 				{
					"id" : "obj-4",
					"maxclass" : "newobj",
					"numinlets" : 1,
					"numoutlets" : 1,
					"outlettype" : [ "" ],
					"patching_rect" : [ 52.0, 1046.0, 23.0, 22.0 ],
					"text" : "* 2"
				}

			}
, 			{
				"box" : 				{
					"id" : "obj-33",
					"maxclass" : "newobj",
					"numinlets" : 1,
					"numoutlets" : 0,
					"patching_rect" : [ 31.0, 1113.0, 155.0, 22.0 ],
					"text" : "out 1 @comment signal out"
				}

			}
, 			{
				"box" : 				{
					"code" : "// phase\r\np = in1;\r\n// pulse width\r\nw = in3;\r\n\r\n// phase increment\r\nT0 = in2;\r\n// samples per period\r\nP0 = 1/T0;\r\n\r\nT2 = 2*T0;\r\nT3 = 3*T0;\r\n// transition polynomial coefficients\r\nP2 = (P0*P0)/2;\r\nP3 = (P0*P0*P0)/6;\r\n\r\n// low first\r\nif (p < w)\r\n{\r\n\t// begin with high-to-low transition\r\n\t// first sample\r\n\tif (p < T0)\r\n\t{\r\n\t\tout1 = -(p*p*p)*P3 + w;\r\n\t}\r\n\t// second sample\r\n\telse if (p < T2)\r\n\t{\r\n\t\tout1 = 2*(p*p*p)*P3 - 3*(p*p)*P2 + 1.5*p*P0 + w - 0.5;\r\n\t}\r\n\t// third sample\r\n\telse if (p < T3)\r\n\t{\r\n\t\tout1 = -(p*p*p)*P3 + 3*(p*p)*P2 - 4.5*p*P0 + w + 3.5;\r\n\t}\r\n\t// output low\r\n\telse\r\n\t{\r\n\t\t// compensate for DC offset\r\n\t\tout1 = w - 1;\r\n\t}\r\n}\r\n// output high\r\nelse\r\n{\r\n\t// this is the distance from the discontinuity\r\n\tpw = p-w;\r\n\t\r\n\t// first sample\r\n\tif (pw < T0)\r\n\t{\r\n\t\tout1 = (pw*pw*pw)*P3 + w - 1;\r\n\t}\r\n\t// second sample\r\n\telse if (pw < T2)\r\n\t{\r\n\t\tout1 = -2*(pw*pw*pw)*P3 + 3*(pw*pw)*P2 - 1.5*pw*P0 + w - 0.5;\r\n\t}\r\n\t// third sample\r\n\telse if (pw < T3)\r\n\t{\r\n\t\toutw = (pw*pw*pw)*P3 - 3*(pw*pw)*P2 + 4.5*pw*P0 + w - 4.5;\r\n\t}\r\n\t// output high\r\n\telse\r\n\t{\r\n\t\tout1 = w;\r\n\t}\r\n}\r\n// still need to scale by 2 for correct amplitude",
					"fontface" : 0,
					"fontname" : "<Monospaced>",
					"fontsize" : 12.0,
					"id" : "obj-20",
					"maxclass" : "codebox",
					"numinlets" : 3,
					"numoutlets" : 1,
					"outlettype" : [ "" ],
					"patching_rect" : [ 52.0, 266.0, 614.0, 280.0 ]
				}

			}
, 			{
				"box" : 				{
					"id" : "obj-6",
					"maxclass" : "newobj",
					"numinlets" : 0,
					"numoutlets" : 1,
					"outlettype" : [ "" ],
					"patching_rect" : [ 101.0, 190.5, 186.0, 22.0 ],
					"text" : "in 2 @comment sync @default 0."
				}

			}
, 			{
				"box" : 				{
					"id" : "obj-15",
					"maxclass" : "newobj",
					"numinlets" : 2,
					"numoutlets" : 1,
					"outlettype" : [ "" ],
					"patching_rect" : [ 349.5, 218.0, 29.5, 22.0 ],
					"text" : "/"
				}

			}
, 			{
				"box" : 				{
					"id" : "obj-14",
					"maxclass" : "newobj",
					"numinlets" : 0,
					"numoutlets" : 1,
					"outlettype" : [ "" ],
					"patching_rect" : [ 360.0, 186.0, 70.0, 22.0 ],
					"text" : "samplerate"
				}

			}
, 			{
				"box" : 				{
					"id" : "obj-9",
					"maxclass" : "newobj",
					"numinlets" : 2,
					"numoutlets" : 1,
					"outlettype" : [ "" ],
					"patching_rect" : [ 52.0, 218.0, 68.0, 22.0 ],
					"text" : "phasor"
				}

			}
, 			{
				"box" : 				{
					"id" : "obj-1",
					"maxclass" : "newobj",
					"numinlets" : 0,
					"numoutlets" : 1,
					"outlettype" : [ "" ],
					"patching_rect" : [ 52.0, 25.0, 353.0, 22.0 ],
					"text" : "in 1 @comment frequency @min 0. @max 20000. @default 440."
				}

			}
 ],
		"lines" : [ 			{
				"patchline" : 				{
					"destination" : [ "obj-15", 0 ],
					"midpoints" : [ 61.5, 174.5, 359.0, 174.5 ],
					"order" : 0,
					"source" : [ "obj-1", 0 ]
				}

			}
, 			{
				"patchline" : 				{
					"destination" : [ "obj-8", 0 ],
					"midpoints" : [ 61.5, 84.0, 195.0, 84.0, 195.0, 84.0, 208.75, 84.0 ],
					"order" : 1,
					"source" : [ "obj-1", 0 ]
				}

			}
, 			{
				"patchline" : 				{
					"destination" : [ "obj-9", 0 ],
					"order" : 2,
					"source" : [ "obj-1", 0 ]
				}

			}
, 			{
				"patchline" : 				{
					"destination" : [ "obj-5", 0 ],
					"source" : [ "obj-10", 0 ]
				}

			}
, 			{
				"patchline" : 				{
					"destination" : [ "obj-5", 2 ],
					"midpoints" : [ 328.5, 1062.0, 82.5, 1062.0 ],
					"source" : [ "obj-11", 0 ]
				}

			}
, 			{
				"patchline" : 				{
					"destination" : [ "obj-11", 2 ],
					"midpoints" : [ 656.5, 234.0, 1094.5, 234.0 ],
					"order" : 0,
					"source" : [ "obj-12", 0 ]
				}

			}
, 			{
				"patchline" : 				{
					"destination" : [ "obj-20", 2 ],
					"order" : 1,
					"source" : [ "obj-12", 0 ]
				}

			}
, 			{
				"patchline" : 				{
					"destination" : [ "obj-8", 1 ],
					"source" : [ "obj-13", 0 ]
				}

			}
, 			{
				"patchline" : 				{
					"destination" : [ "obj-15", 1 ],
					"source" : [ "obj-14", 0 ]
				}

			}
, 			{
				"patchline" : 				{
					"destination" : [ "obj-11", 1 ],
					"midpoints" : [ 359.0, 252.0, 678.0, 252.0, 678.0, 558.0, 711.5, 558.0 ],
					"order" : 0,
					"source" : [ "obj-15", 0 ]
				}

			}
, 			{
				"patchline" : 				{
					"destination" : [ "obj-20", 1 ],
					"order" : 2,
					"source" : [ "obj-15", 0 ]
				}

			}
, 			{
				"patchline" : 				{
					"destination" : [ "obj-27", 1 ],
					"midpoints" : [ 359.0, 250.0, 338.5, 250.0, 338.5, 178.0, 315.0, 178.0 ],
					"order" : 1,
					"source" : [ "obj-15", 0 ]
				}

			}
, 			{
				"patchline" : 				{
					"destination" : [ "obj-17", 1 ],
					"source" : [ "obj-16", 0 ]
				}

			}
, 			{
				"patchline" : 				{
					"destination" : [ "obj-25", 1 ],
					"source" : [ "obj-17", 0 ]
				}

			}
, 			{
				"patchline" : 				{
					"destination" : [ "obj-29", 0 ],
					"source" : [ "obj-19", 0 ]
				}

			}
, 			{
				"patchline" : 				{
					"destination" : [ "obj-4", 0 ],
					"source" : [ "obj-20", 0 ]
				}

			}
, 			{
				"patchline" : 				{
					"destination" : [ "obj-25", 0 ],
					"source" : [ "obj-24", 0 ]
				}

			}
, 			{
				"patchline" : 				{
					"destination" : [ "obj-9", 0 ],
					"midpoints" : [ 208.75, 182.5, 61.5, 182.5 ],
					"source" : [ "obj-25", 0 ]
				}

			}
, 			{
				"patchline" : 				{
					"destination" : [ "obj-19", 0 ],
					"source" : [ "obj-27", 0 ]
				}

			}
, 			{
				"patchline" : 				{
					"destination" : [ "obj-5", 1 ],
					"source" : [ "obj-4", 0 ]
				}

			}
, 			{
				"patchline" : 				{
					"destination" : [ "obj-33", 0 ],
					"source" : [ "obj-5", 0 ]
				}

			}
, 			{
				"patchline" : 				{
					"destination" : [ "obj-9", 1 ],
					"source" : [ "obj-6", 0 ]
				}

			}
, 			{
				"patchline" : 				{
					"destination" : [ "obj-10", 0 ],
					"source" : [ "obj-7", 0 ]
				}

			}
, 			{
				"patchline" : 				{
					"destination" : [ "obj-17", 0 ],
					"order" : 0,
					"source" : [ "obj-8", 0 ]
				}

			}
, 			{
				"patchline" : 				{
					"destination" : [ "obj-24", 0 ],
					"order" : 1,
					"source" : [ "obj-8", 0 ]
				}

			}
, 			{
				"patchline" : 				{
					"destination" : [ "obj-11", 0 ],
					"midpoints" : [ 61.5, 249.0, 39.0, 249.0, 39.0, 558.0, 328.5, 558.0 ],
					"order" : 0,
					"source" : [ "obj-9", 0 ]
				}

			}
, 			{
				"patchline" : 				{
					"destination" : [ "obj-20", 0 ],
					"order" : 2,
					"source" : [ "obj-9", 0 ]
				}

			}
, 			{
				"patchline" : 				{
					"destination" : [ "obj-27", 0 ],
					"midpoints" : [ 61.5, 256.0, 186.0, 256.0, 186.0, 256.0, 281.0, 256.0, 281.0, 179.0, 304.5, 179.0 ],
					"order" : 1,
					"source" : [ "obj-9", 0 ]
				}

			}
 ],
		"styles" : [ 			{
				"name" : "AudioStatus_Menu",
				"default" : 				{
					"bgfillcolor" : 					{
						"type" : "color",
						"color" : [ 0.294118, 0.313726, 0.337255, 1 ],
						"color1" : [ 0.454902, 0.462745, 0.482353, 0.0 ],
						"color2" : [ 0.290196, 0.309804, 0.301961, 1.0 ],
						"angle" : 270.0,
						"proportion" : 0.39,
						"autogradient" : 0
					}

				}
,
				"parentstyle" : "",
				"multi" : 0
			}
, 			{
				"name" : "newobjBlue-1",
				"default" : 				{
					"accentcolor" : [ 0.317647, 0.654902, 0.976471, 1.0 ]
				}
,
				"parentstyle" : "",
				"multi" : 0
			}
, 			{
				"name" : "newobjGreen-1",
				"default" : 				{
					"accentcolor" : [ 0.0, 0.533333, 0.168627, 1.0 ]
				}
,
				"parentstyle" : "",
				"multi" : 0
			}
, 			{
				"name" : "newobjYellow-1",
				"default" : 				{
					"accentcolor" : [ 0.82517, 0.78181, 0.059545, 1.0 ],
					"fontsize" : [ 12.059008 ]
				}
,
				"parentstyle" : "",
				"multi" : 0
			}
 ]
	}

}
